
<svg version="1.1" id="Layer_1" xmlns="http://www.w3.org/2000/svg" x="0" y="0" width="220" height="52" viewBox="0 0 220 52" xml:space="preserve"><path fill="#178CD3" d="M46 24.6c-.6-.8-1.5-1.2-2.5-1.2-.4 0-.7.1-1.1.3s-.5.5-.5.9c0 .3.2.6.5.8.4.2.8.3 1.4.4.5.1 1.1.3 1.8.4.6.1 1.2.4 1.8.7.5.3 1 .7 1.4 1.3.4.5.5 1.2.5 2.1 0 .9-.2 1.6-.6 2.2-.4.6-.9 1.1-1.5 1.4-.6.4-1.3.6-2.1.8-.8.1-1.5.2-2.3.2-1 0-2-.1-3-.4-1-.3-1.8-.8-2.5-1.5l2.6-2.9c.4.5.9.9 1.3 1.1.5.3 1.1.4 1.7.4.5 0 1-.1 1.4-.2.4-.1.6-.4.6-.8s-.2-.6-.5-.8c-.4-.2-.8-.3-1.4-.5-.5-.1-1.1-.3-1.8-.4-.6-.1-1.2-.4-1.8-.6-.5-.3-1-.7-1.4-1.2-.4-.5-.5-1.2-.5-2.1 0-.8.2-1.5.5-2.1.3-.6.8-1.1 1.3-1.5.5-.4 1.2-.7 1.9-.9.7-.2 1.4-.3 2.2-.3.9 0 1.9.1 2.8.4.9.3 1.7.8 2.4 1.4L46 24.6zm4.3-8.5c0-.7.2-1.3.7-1.8.5-.5 1.1-.7 1.8-.7s1.3.2 1.8.7c.5.5.7 1.1.7 1.8s-.2 1.3-.7 1.8c-.5.5-1.1.7-1.8.7s-1.3-.2-1.8-.7c-.5-.5-.7-1.1-.7-1.8zm.3 4.4H55v14h-4.3v-14zm6.6 0h4.2v1.9h.1c.1-.3.3-.5.6-.8.2-.3.5-.5.9-.7.3-.2.7-.4 1.2-.5.4-.1.9-.2 1.4-.2 1 0 1.9.2 2.6.6.8.4 1.3 1 1.7 1.9.5-.9 1.1-1.5 1.8-1.9.7-.4 1.6-.6 2.6-.6.9 0 1.7.2 2.4.5.6.3 1.2.8 1.5 1.3.4.5.6 1.2.8 1.9.2.7.2 1.5.2 2.4v8.3h-4.3v-8.2c0-.7-.1-1.2-.4-1.7-.3-.5-.8-.7-1.5-.7-.5 0-.9.1-1.3.2-.3.2-.6.4-.8.7-.2.3-.3.6-.4 1-.1.4-.1.8-.1 1.2v7.4h-4.3v-8.3c0-.4-.1-.7-.2-1-.1-.3-.3-.6-.6-.8-.3-.3-.7-.4-1.2-.4-.6 0-1 .1-1.4.3s-.6.5-.8.8c-.2.3-.3.7-.4 1.1-.1.4-.1.9-.1 1.3v7h-4.3v-14zm24.7 0h4v1.8h.1c.2-.2.4-.5.7-.8.3-.3.6-.5 1-.7.4-.2.8-.4 1.2-.5.4-.1.9-.2 1.4-.2 1 0 2 .2 2.8.5.8.4 1.6.9 2.2 1.5.6.6 1.1 1.4 1.4 2.3.3.9.5 1.9.5 2.9s-.1 1.9-.4 2.8c-.3.9-.7 1.7-1.3 2.4-.5.7-1.2 1.2-2 1.7-.8.4-1.7.6-2.7.6-.9 0-1.7-.1-2.5-.4-.8-.3-1.4-.8-1.9-1.4h-.1v8.1H82V20.5zm3.9 7c0 1.1.3 1.9.9 2.6.6.7 1.5 1 2.6 1s1.9-.3 2.6-1c.6-.7.9-1.5.9-2.6s-.3-1.9-.9-2.6c-.6-.7-1.5-1-2.6-1s-1.9.3-2.6 1c-.5.7-.9 1.5-.9 2.6zm13-14.8h4.3v21.8h-4.3V12.7zm19.9 19.4c-.7.9-1.6 1.6-2.6 2-1.1.5-2.2.7-3.3.7-1.1 0-2.1-.2-3-.5-1-.3-1.8-.8-2.5-1.5-.7-.6-1.3-1.4-1.7-2.3-.4-.9-.6-1.9-.6-3s.2-2.1.6-3c.4-.9 1-1.7 1.7-2.3.7-.6 1.5-1.1 2.5-1.5 1-.3 2-.5 3-.5s1.9.2 2.7.5c.8.3 1.5.8 2.1 1.5.6.6 1 1.4 1.3 2.3.3.9.5 1.9.5 3v1.4h-10c.2.8.5 1.5 1.1 2 .6.5 1.3.7 2.1.7.7 0 1.3-.2 1.8-.5s.9-.7 1.3-1.2l3 2.2zm-3.7-6.2c0-.7-.2-1.4-.7-1.9-.5-.5-1.1-.8-1.9-.8-.5 0-.9.1-1.3.2-.4.2-.7.4-.9.6-.3.2-.5.5-.6.8-.1.3-.2.6-.2 1h5.6z"/><path fill="#68BC45" d="M129 24.6c-.6-.8-1.5-1.2-2.5-1.2-.4 0-.7.1-1.1.3-.3.2-.5.5-.5.9 0 .3.2.6.5.8.4.2.8.3 1.4.4.5.1 1.1.3 1.8.4.6.1 1.2.4 1.8.7.5.3 1 .7 1.4 1.3.4.5.5 1.2.5 2.1 0 .9-.2 1.6-.6 2.2-.4.6-.9 1.1-1.5 1.4-.6.4-1.3.6-2.1.8-.8.1-1.5.2-2.3.2-1 0-2-.1-3-.4-1-.3-1.8-.8-2.5-1.5l2.6-2.9c.4.5.9.9 1.3 1.1.5.3 1.1.4 1.7.4.5 0 1-.1 1.4-.2.4-.1.6-.4.6-.8s-.2-.6-.5-.8c-.4-.2-.8-.3-1.4-.5-.5-.1-1.1-.3-1.8-.4-.6-.1-1.2-.4-1.8-.6-.5-.3-1-.7-1.4-1.2-.4-.5-.5-1.2-.5-2.1 0-.8.2-1.5.5-2.1.3-.6.8-1.1 1.3-1.5.5-.4 1.2-.7 1.9-.9.7-.2 1.4-.3 2.2-.3.9 0 1.9.1 2.8.4.9.3 1.7.8 2.4 1.4l-2.6 2.6zm18.1 9.9H143v-1.9h-.1c-.2.3-.4.5-.6.8-.2.3-.5.5-.9.7-.3.2-.7.4-1.2.5-.4.1-.9.2-1.4.2-1.1 0-2-.2-2.7-.5-.7-.3-1.2-.8-1.6-1.4-.4-.6-.6-1.3-.8-2.1-.1-.8-.2-1.7-.2-2.6v-7.7h4.3v8.2c0 .4.1.8.3 1.2.1.4.4.7.7.9.3.2.7.3 1.3.3.6 0 1-.1 1.4-.3.3-.2.6-.5.8-.8.2-.3.3-.7.4-1.1.1-.4.1-.9.1-1.3v-7h4.3v13.9zm2.2-14h4.3v2.3h.1c.5-.9 1-1.5 1.6-1.9.6-.4 1.4-.6 2.4-.6h.8c.2 0 .5.1.7.1v4c-.3-.1-.6-.2-.9-.2-.3 0-.6-.1-.9-.1-.8 0-1.5.1-2 .3-.5.2-.9.6-1.1 1-.3.4-.4.9-.5 1.5-.1.6-.1 1.2-.1 1.9v5.9h-4.3V20.5zM169 32.8c-.5.8-1.2 1.3-2 1.6-.8.3-1.6.5-2.5.5-.7 0-1.3-.1-1.9-.3-.6-.2-1.1-.5-1.6-.8-.5-.4-.8-.8-1.1-1.4-.3-.5-.4-1.2-.4-1.9 0-.8.1-1.5.4-2 .3-.6.7-1 1.2-1.4.5-.4 1.1-.6 1.7-.9.7-.2 1.3-.4 2-.4.7-.1 1.4-.2 2.1-.2h1.9c0-.8-.3-1.4-.8-1.8-.5-.5-1.2-.7-1.9-.7s-1.4.1-1.9.4c-.6.3-1.1.7-1.6 1.2l-2.3-2.4c.8-.8 1.8-1.3 2.8-1.7 1.1-.4 2.2-.6 3.3-.6 1.3 0 2.3.2 3.1.5.8.3 1.5.8 2 1.4.5.6.8 1.4 1 2.3.2.9.3 1.9.3 3.1v7.1h-4v-1.6zm-1.1-4.4h-1.2c-.5 0-1 .1-1.4.2-.5.1-.8.3-1.2.6-.3.3-.5.6-.5 1.1 0 .5.2.9.7 1.2.4.3.9.4 1.4.4.4 0 .8-.1 1.2-.2.4-.1.7-.3 1.1-.5.3-.2.6-.5.7-.8.2-.3.3-.7.3-1.2v-.9h-1.1zm6.9-7.9h4.2v1.9h.1c.1-.3.3-.5.6-.8.2-.3.5-.5.9-.7.3-.2.7-.4 1.2-.5.4-.1.9-.2 1.4-.2 1.1 0 2 .2 2.7.5.7.3 1.2.8 1.6 1.4.4.6.6 1.3.8 2.1.1.8.2 1.7.2 2.6v7.7H184v-8.2c0-.5-.1-.8-.3-1.2-.1-.4-.4-.7-.7-.9-.3-.2-.7-.3-1.3-.3-.6 0-1 .1-1.4.3s-.6.5-.8.8c-.2.3-.3.7-.4 1.1-.1.4-.1.9-.1 1.3v7h-4.3V20.5zM200 25c-.2-.3-.5-.6-.9-.8-.4-.2-.8-.3-1.2-.3-1.1 0-1.9.3-2.6 1-.6.7-.9 1.5-.9 2.6s.3 1.9.9 2.6c.6.7 1.5 1 2.6 1 .5 0 .9-.1 1.2-.3.3-.2.6-.5.9-.8l2.9 3c-.7.7-1.5 1.2-2.4 1.5-.9.3-1.8.4-2.6.4-1.1 0-2.1-.2-3-.5-1-.3-1.8-.8-2.5-1.5-.7-.6-1.3-1.4-1.7-2.3-.4-.9-.6-1.9-.6-3s.2-2.1.6-3c.4-.9 1-1.7 1.7-2.3.7-.6 1.5-1.1 2.5-1.5 1-.3 2-.5 3-.5.8 0 1.7.1 2.6.4.9.3 1.7.8 2.4 1.5L200 25zm16.8 7.1c-.7.9-1.6 1.6-2.6 2-1.1.5-2.2.7-3.3.7-1.1 0-2.1-.2-3-.5-1-.3-1.8-.8-2.5-1.5-.7-.6-1.3-1.4-1.7-2.3-.4-.9-.6-1.9-.6-3s.2-2.1.6-3c.4-.9 1-1.7 1.7-2.3.7-.6 1.5-1.1 2.5-1.5 1-.3 2-.5 3-.5s1.9.2 2.7.5c.8.3 1.5.8 2.1 1.5.6.6 1 1.4 1.3 2.3.3.9.5 1.9.5 3v1.4h-10c.2.8.5 1.5 1.1 2 .6.5 1.3.7 2.1.7.7 0 1.3-.2 1.8-.5s.9-.7 1.3-1.2l3 2.2zm-3.6-6.2c0-.7-.2-1.4-.7-1.9-.5-.5-1.1-.8-1.9-.8-.5 0-.9.1-1.3.2-.4.2-.7.4-.9.6-.3.2-.5.5-.6.8-.1.3-.2.6-.2 1h5.6z"/><path fill="#1E88C9" d="M23.4 27.6l2.4 5.5c.8-1.2 1.5-2.4 2.1-3.7.3-.6.5-1.2.8-1.8h-5.3z"/><path fill="#178CD3" d="M30.5 12.4V12l-.4-.2c-.2-.1-4.3-2.1-13.5-2.1s-13.3 2-13.5 2.1l-.5.2v.4c0 .2-.3 5.2.1 7.6l.1.4c.2 1.6.6 4.9 2.4 8.9 2.3 4.9 6 9.2 10.9 12.6l.4.3.5-.2c2.5-1.8 4.7-3.7 6.6-5.9L20.5 29l-3.9 3.8V14.5L29 26.9c1-2.8 1.3-5.1 1.4-6.3l.1-.4c.2-2.6 0-7.6 0-7.8z"/></svg>

